<svg width="87" height="74" viewBox="0 0 87 74" fill="none" xmlns="http://www.w3.org/2000/svg">
<mask id="mask0_179_101" style="mask-type:alpha" maskUnits="userSpaceOnUse" x="18" y="7" width="35" height="35">
<path d="M47.4198 36.203C53.9611 29.5828 53.9611 18.8493 47.4198 12.2291C40.8785 5.60896 30.273 5.60896 23.7317 12.2291C17.1905 18.8493 17.1905 29.5828 23.7317 36.203C30.273 42.8232 40.8785 42.8232 47.4198 36.203Z" fill="#C4C4C4"/>
</mask>
<g mask="url(#mask0_179_101)">
<path d="M58.8198 36.3586C68.4666 26.5955 68.4666 10.7663 58.8198 1.00324C49.1731 -8.75987 33.5326 -8.75987 23.8859 1.00324C14.2392 10.7663 14.2392 26.5955 23.8859 36.3586C33.5326 46.1217 49.1731 46.1217 58.8198 36.3586Z" fill="#FFEAD8"/>
<path d="M71.0225 23.5241C80.6692 13.761 80.6692 -2.06813 71.0225 -11.8312C61.3757 -21.5943 45.7353 -21.5943 36.0885 -11.8312C26.4418 -2.06813 26.4418 13.761 36.0885 23.5241C45.7353 33.2872 61.3757 33.2872 71.0225 23.5241Z" fill="white"/>
<path d="M48.0207 67.9672C47.9358 67.622 47.396 67.1138 46.4012 66.4432C46.1318 66.2319 45.7478 65.9449 45.251 65.5805C44.7536 65.2162 44.3025 64.8805 43.8978 64.5737C43.4924 64.2672 43.1124 63.9699 42.7575 63.6826C42.7006 63.6251 42.5233 63.4576 42.2249 63.1792C41.9261 62.9014 41.6743 62.6953 41.4679 62.5607C41.2621 62.4271 41.0595 62.3596 40.8605 62.3596C40.5766 62.3596 40.2216 62.6329 39.7956 63.1792C39.3696 63.7257 38.9787 64.3196 38.6238 64.9624C38.2685 65.6049 37.8922 66.199 37.4946 66.7453C37.0966 67.2918 36.7698 67.5651 36.5143 67.5651C36.386 67.5651 36.226 67.5168 36.0345 67.4216C35.8429 67.3257 35.6971 67.2436 35.5973 67.1775C35.4981 67.11 35.3279 66.9761 35.0863 66.7744C34.8442 66.573 34.7095 66.4627 34.6812 66.4432C32.7348 64.986 31.0656 63.3179 29.6732 61.4398C28.2812 59.5603 27.045 57.3083 25.9652 54.6816C25.9511 54.6432 25.8692 54.461 25.7201 54.1353C25.5708 53.8093 25.4713 53.5795 25.4216 53.4449C25.3719 53.3107 25.3115 53.1141 25.2406 52.8555C25.1697 52.5966 25.1341 52.3812 25.1341 52.2083C25.1341 51.8634 25.3366 51.4223 25.7415 50.8853C26.1464 50.349 26.587 49.8408 27.0627 49.3617C27.5389 48.8829 27.979 48.3555 28.3839 47.7805C28.7888 47.2052 28.9912 46.7261 28.9912 46.3429C28.9912 46.0747 28.9415 45.8011 28.8422 45.5233C28.7428 45.2449 28.59 44.9049 28.3839 44.5021C28.1778 44.0994 28.0535 43.86 28.0108 43.7829C27.7979 43.3042 27.578 42.7915 27.3504 42.2449C27.1228 41.6987 26.8744 41.0894 26.6043 40.4186C26.3345 39.748 26.1215 39.2302 25.9651 38.8662C25.4681 37.5244 25.0917 36.7956 24.8359 36.6809C24.7364 36.6233 24.5871 36.5942 24.3884 36.5942C24.0046 36.5942 23.5039 36.6901 22.8859 36.8819C22.2678 37.0737 21.7813 37.2747 21.4261 37.486C20.7157 37.8884 19.9628 39.0576 19.1671 40.9936C18.4426 42.7956 16.7397 46.3877 16.7397 48.1514C16.7397 48.6686 16.7646 49.1716 16.8143 49.661C16.864 50.1501 16.9529 50.7011 17.0809 51.3148C17.2087 51.9281 17.3118 52.384 17.3897 52.6805C17.4677 52.9775 17.6133 53.5093 17.8265 54.2764C18.0393 55.0436 18.1674 55.5131 18.21 55.6853C18.7072 57.5644 19.2968 59.2418 19.9787 60.7179C21.1005 63.172 22.6315 65.7076 24.5707 68.3247C26.51 70.9415 28.3889 73.0073 30.2075 74.522C31.3013 75.4418 32.5448 76.2374 33.937 76.909C34.0649 76.9662 34.4128 77.1384 34.9809 77.4268C35.5492 77.7141 35.9434 77.9107 36.1637 78.0162C36.3837 78.1216 36.7214 78.2607 37.1758 78.4336C37.631 78.6062 38.039 78.7261 38.4011 78.7939C38.7639 78.86 39.1368 78.8942 39.5202 78.8942C40.827 78.8942 43.4891 76.5959 44.8247 75.6182C46.2591 74.5449 47.1253 73.5288 47.4238 72.5696C47.5808 72.0908 47.7293 71.434 47.8715 70.6001C48.0139 69.7662 48.0846 69.0905 48.0846 68.5727C48.085 68.3035 48.0637 68.1025 48.0207 67.9672Z" fill="#FF7800"/>
<path d="M22.4078 27.1298L14.3921 18.0488L6.49609 23.1342C6.77523 28.3406 7.57283 39.2377 8.52992 41.1751C9.487 43.1124 23.2851 50.3771 30.0645 53.7675C36.1659 49.8525 48.5125 41.9744 49.0867 41.7805C49.661 41.5867 46.6142 39.6011 45.019 38.6322L36.6447 40.5696L22.4078 27.1298Z" fill="#FF7800"/>
</g>
<mask id="mask1_179_101" style="mask-type:alpha" maskUnits="userSpaceOnUse" x="18" y="7" width="35" height="35">
<path d="M47.4198 36.203C53.9611 29.5828 53.9611 18.8493 47.4198 12.2291C40.8785 5.60896 30.273 5.60896 23.7317 12.2291C17.1905 18.8493 17.1905 29.5828 23.7317 36.203C30.273 42.8232 40.8785 42.8232 47.4198 36.203Z" fill="#C4C4C4"/>
</mask>
<g mask="url(#mask1_179_101)">
<path d="M39.4043 0.242143L10.2129 29.7856L10.6914 30.27L39.8828 0.726463L39.4043 0.242143Z" fill="white"/>
<path d="M41.5576 2.42159L12.3662 31.9651L12.8448 32.4494L42.0361 2.90591L41.5576 2.42159Z" fill="white"/>
<path d="M43.4721 4.35884L14.2808 33.9023L14.7593 34.3867L43.9507 4.84316L43.4721 4.35884Z" fill="white"/>
<path d="M45.6254 6.53829L16.4341 36.0818L16.9126 36.5661L46.104 7.02261L45.6254 6.53829Z" fill="white"/>
<path d="M47.5395 8.47579L18.3481 38.0193L18.8267 38.5036L48.0181 8.96011L47.5395 8.47579Z" fill="white"/>
<path d="M49.6928 10.6552L20.5015 40.1987L20.98 40.6831L50.1714 11.1396L49.6928 10.6552Z" fill="white"/>
<path d="M51.6074 12.5925L22.416 42.136L22.8946 42.6203L52.0859 13.0768L51.6074 12.5925Z" fill="white"/>
<path d="M53.7607 14.7719L24.5693 44.3154L25.0479 44.7997L54.2392 15.2563L53.7607 14.7719Z" fill="white"/>
<path d="M55.6748 16.7089L26.4834 46.2524L26.9619 46.7368L56.1533 17.1933L55.6748 16.7089Z" fill="white"/>
<path d="M57.8286 18.8884L28.6372 48.4319L29.1158 48.9162L58.3071 19.3727L57.8286 18.8884Z" fill="white"/>
<path d="M59.7426 20.8256L30.5513 50.3691L31.0298 50.8535L60.2212 21.31L59.7426 20.8256Z" fill="white"/>
</g>
<mask id="mask2_179_101" style="mask-type:alpha" maskUnits="userSpaceOnUse" x="19" y="7" width="34" height="34">
<path d="M47.6591 35.9608C54.2004 29.3406 54.2004 18.6072 47.6591 11.987C41.1178 5.36678 30.5123 5.36677 23.971 11.987C17.4297 18.6072 17.4297 29.3406 23.971 35.9608C30.5123 42.581 41.1178 42.581 47.6591 35.9608Z" fill="#C4C4C4"/>
</mask>
<g mask="url(#mask2_179_101)">
<path d="M38.208 -1.45293L9.0166 28.0906L9.49515 28.5749L38.6865 -0.968611L38.208 -1.45293Z" fill="#FF7800"/>
<path d="M40.122 0.484331L10.9307 30.0278L11.4092 30.5122L40.6006 0.96865L40.122 0.484331Z" fill="#FF7800"/>
<path d="M42.2758 2.66402L13.0845 32.2075L13.563 32.6918L42.7544 3.14834L42.2758 2.66402Z" fill="#FF7800"/>
<path d="M44.1899 4.60103L14.9985 34.1445L15.4771 34.6289L44.6685 5.08535L44.1899 4.60103Z" fill="#FF7800"/>
<path d="M46.3432 6.78047L17.1519 36.324L17.6304 36.8083L46.8218 7.26479L46.3432 6.78047Z" fill="#FF7800"/>
<path d="M48.2573 8.71797L19.0659 38.2615L19.5445 38.7458L48.7358 9.20229L48.2573 8.71797Z" fill="#FF7800"/>
<path d="M50.4111 10.8974L21.2197 40.4409L21.6983 40.9252L50.8897 11.3817L50.4111 10.8974Z" fill="#FF7800"/>
<path d="M52.3252 12.8347L23.1338 42.3782L23.6123 42.8625L52.8037 13.319L52.3252 12.8347Z" fill="#FF7800"/>
<path d="M54.4785 15.0141L25.2871 44.5576L25.7657 45.0419L54.957 15.4984L54.4785 15.0141Z" fill="#FF7800"/>
<path d="M56.3926 16.9514L27.2012 46.4949L27.6797 46.9792L56.8711 17.4357L56.3926 16.9514Z" fill="#FF7800"/>
<path d="M58.5463 19.1308L29.355 48.6743L29.8335 49.1586L59.0249 19.6151L58.5463 19.1308Z" fill="#FF7800"/>
<path d="M60.4604 21.0678L31.269 50.6113L31.7476 51.0956L60.939 21.5521L60.4604 21.0678Z" fill="#FF7800"/>
</g>
<path d="M35.6958 43.6154C46.2548 43.6154 54.8145 34.9524 54.8145 24.2661C54.8145 13.5797 46.2548 4.91675 35.6958 4.91675C25.1369 4.91675 16.5771 13.5797 16.5771 24.2661C16.5771 34.9524 25.1369 43.6154 35.6958 43.6154Z" stroke="black" stroke-width="2"/>
<path d="M46.305 8.56172C55.7585 4.92487 61.9529 4.48764 63.6668 7.49199C66.2365 11.9964 55.2648 23.2761 39.1611 32.6857C23.0574 42.0955 7.91966 46.0719 5.35001 41.5674C3.61373 38.5236 8.49329 32.2481 16.5273 25.685" stroke="black" stroke-width="2"/>
<path d="M60.1788 19.9132C62.2345 19.9132 63.901 18.2266 63.901 16.146C63.901 14.0655 62.2345 12.3789 60.1788 12.3789C58.123 12.3789 56.4565 14.0655 56.4565 16.146C56.4565 18.2266 58.123 19.9132 60.1788 19.9132Z" fill="#FF7800"/>
<path d="M5.13636 70H1.01136V58.3636H5.17045C6.34091 58.3636 7.34848 58.5966 8.19318 59.0625C9.03788 59.5246 9.6875 60.1894 10.142 61.0568C10.6004 61.9242 10.8295 62.9621 10.8295 64.1705C10.8295 65.3826 10.6004 66.4242 10.142 67.2955C9.6875 68.1667 9.03409 68.8352 8.18182 69.3011C7.33333 69.767 6.31818 70 5.13636 70ZM3.47159 67.892H5.03409C5.76136 67.892 6.37311 67.7633 6.86932 67.5057C7.36932 67.2443 7.74432 66.8409 7.99432 66.2955C8.24811 65.7462 8.375 65.0379 8.375 64.1705C8.375 63.3106 8.24811 62.608 7.99432 62.0625C7.74432 61.517 7.37121 61.1155 6.875 60.858C6.37879 60.6004 5.76705 60.4716 5.03977 60.4716H3.47159V67.892ZM15.0952 70.1648C14.5384 70.1648 14.0421 70.0682 13.6065 69.875C13.1709 69.678 12.8262 69.3883 12.5724 69.0057C12.3224 68.6193 12.1974 68.1383 12.1974 67.5625C12.1974 67.0777 12.2865 66.6705 12.4645 66.3409C12.6425 66.0114 12.8849 65.7462 13.1918 65.5455C13.4986 65.3447 13.8471 65.1932 14.2372 65.0909C14.6312 64.9886 15.044 64.9167 15.4759 64.875C15.9834 64.822 16.3925 64.7727 16.7031 64.7273C17.0137 64.678 17.2391 64.6061 17.3793 64.5114C17.5194 64.4167 17.5895 64.2765 17.5895 64.0909V64.0568C17.5895 63.697 17.4759 63.4186 17.2486 63.2216C17.0251 63.0246 16.7069 62.9261 16.294 62.9261C15.8584 62.9261 15.5118 63.0227 15.2543 63.2159C14.9967 63.4053 14.8262 63.6439 14.7429 63.9318L12.5043 63.75C12.6179 63.2197 12.8414 62.7614 13.1747 62.375C13.508 61.9848 13.938 61.6856 14.4645 61.4773C14.9948 61.2652 15.6084 61.1591 16.3054 61.1591C16.7902 61.1591 17.2543 61.2159 17.6974 61.3295C18.1444 61.4432 18.5402 61.6193 18.8849 61.858C19.2334 62.0966 19.508 62.4034 19.7088 62.7784C19.9096 63.1496 20.0099 63.5947 20.0099 64.1136V70H17.7145V68.7898H17.6463C17.5062 69.0625 17.3187 69.303 17.0838 69.5114C16.849 69.7159 16.5668 69.8769 16.2372 69.9943C15.9077 70.108 15.527 70.1648 15.0952 70.1648ZM15.7884 68.4943C16.1444 68.4943 16.4588 68.4242 16.7315 68.2841C17.0043 68.1402 17.2183 67.947 17.3736 67.7045C17.5289 67.4621 17.6065 67.1875 17.6065 66.8807V65.9545C17.5308 66.0038 17.4266 66.0492 17.294 66.0909C17.1652 66.1288 17.0194 66.1648 16.8565 66.1989C16.6937 66.2292 16.5308 66.2576 16.3679 66.2841C16.205 66.3068 16.0573 66.3277 15.9247 66.3466C15.6406 66.3883 15.3925 66.4545 15.1804 66.5455C14.9683 66.6364 14.8035 66.7595 14.6861 66.9148C14.5687 67.0663 14.5099 67.2557 14.5099 67.483C14.5099 67.8125 14.6293 68.0644 14.8679 68.2386C15.1103 68.4091 15.4171 68.4943 15.7884 68.4943ZM21.8878 70V61.2727H24.3082V70H21.8878ZM23.1037 60.1477C22.7438 60.1477 22.4351 60.0284 22.1776 59.7898C21.9238 59.5473 21.7969 59.2576 21.7969 58.9205C21.7969 58.5871 21.9238 58.3011 22.1776 58.0625C22.4351 57.8201 22.7438 57.6989 23.1037 57.6989C23.4635 57.6989 23.7704 57.8201 24.0241 58.0625C24.2817 58.3011 24.4105 58.5871 24.4105 58.9205C24.4105 59.2576 24.2817 59.5473 24.0241 59.7898C23.7704 60.0284 23.4635 60.1477 23.1037 60.1477ZM28.6676 58.3636V70H26.2472V58.3636H28.6676ZM32.1009 73.2727C31.794 73.2727 31.5062 73.2481 31.2372 73.1989C30.9721 73.1534 30.7524 73.0947 30.5781 73.0227L31.1236 71.2159C31.4077 71.303 31.6634 71.3504 31.8906 71.358C32.1217 71.3655 32.3205 71.3125 32.4872 71.1989C32.6577 71.0852 32.7959 70.892 32.902 70.6193L33.044 70.25L29.9134 61.2727H32.4588L34.2656 67.6818H34.3565L36.1804 61.2727H38.7429L35.3509 70.9432C35.188 71.4129 34.9664 71.822 34.6861 72.1705C34.4096 72.5227 34.0592 72.7936 33.6349 72.983C33.2107 73.1761 32.6993 73.2727 32.1009 73.2727ZM53.4631 58.3636V70H51.3381L46.2756 62.6761H46.1903V70H43.7301V58.3636H45.8892L50.9119 65.6818H51.0142V58.3636H53.4631ZM59.4276 70.1705C58.5298 70.1705 57.7571 69.9886 57.1094 69.625C56.4654 69.2576 55.9692 68.7386 55.6207 68.0682C55.2723 67.3939 55.098 66.5966 55.098 65.6761C55.098 64.7784 55.2723 63.9905 55.6207 63.3125C55.9692 62.6345 56.4598 62.1061 57.0923 61.7273C57.7287 61.3485 58.4749 61.1591 59.331 61.1591C59.9067 61.1591 60.4427 61.2519 60.9389 61.4375C61.4389 61.6193 61.8745 61.8939 62.2457 62.2614C62.6207 62.6288 62.9124 63.0909 63.1207 63.6477C63.3291 64.2008 63.4332 64.8485 63.4332 65.5909V66.2557H56.0639V64.7557H61.1548C61.1548 64.4072 61.0791 64.0985 60.9276 63.8295C60.776 63.5606 60.5658 63.3504 60.2969 63.1989C60.0317 63.0436 59.723 62.9659 59.3707 62.9659C59.0033 62.9659 58.6776 63.0511 58.3935 63.2216C58.1132 63.3883 57.8935 63.6136 57.7344 63.8977C57.5753 64.178 57.4938 64.4905 57.4901 64.8352V66.2614C57.4901 66.6932 57.5696 67.0663 57.7287 67.3807C57.8916 67.6951 58.1207 67.9375 58.4162 68.108C58.7116 68.2784 59.062 68.3636 59.4673 68.3636C59.7363 68.3636 59.9825 68.3258 60.206 68.25C60.4295 68.1742 60.6207 68.0606 60.7798 67.9091C60.9389 67.7576 61.0601 67.572 61.1435 67.3523L63.3821 67.5C63.2685 68.0379 63.0355 68.5076 62.6832 68.9091C62.3348 69.3068 61.884 69.6174 61.331 69.8409C60.7817 70.0606 60.1473 70.1705 59.4276 70.1705ZM66.6719 70L64.2969 61.2727H66.7457L68.098 67.1364H68.1776L69.5866 61.2727H71.9901L73.4219 67.1023H73.4957L74.8253 61.2727H77.2685L74.8991 70H72.3366L70.8366 64.5114H70.7287L69.2287 70H66.6719ZM85.821 63.7614L83.6051 63.8977C83.5672 63.7083 83.4858 63.5379 83.3608 63.3864C83.2358 63.2311 83.071 63.108 82.8665 63.017C82.6657 62.9223 82.4252 62.875 82.1449 62.875C81.7699 62.875 81.4536 62.9545 81.196 63.1136C80.9384 63.2689 80.8097 63.4773 80.8097 63.7386C80.8097 63.947 80.893 64.1231 81.0597 64.267C81.2263 64.411 81.5123 64.5265 81.9176 64.6136L83.4972 64.9318C84.3456 65.1061 84.9782 65.3864 85.3949 65.7727C85.8116 66.1591 86.0199 66.6667 86.0199 67.2955C86.0199 67.8674 85.8513 68.3693 85.5142 68.8011C85.1809 69.233 84.7225 69.5701 84.1392 69.8125C83.5597 70.0511 82.8911 70.1705 82.1335 70.1705C80.9782 70.1705 80.0578 69.9299 79.3722 69.4489C78.6903 68.964 78.2907 68.3049 78.1733 67.4716L80.554 67.3466C80.6259 67.6989 80.8002 67.9678 81.0767 68.1534C81.3532 68.3352 81.7074 68.4261 82.1392 68.4261C82.5634 68.4261 82.9044 68.3447 83.1619 68.1818C83.4233 68.0152 83.5559 67.8011 83.5597 67.5398C83.5559 67.3201 83.4631 67.1402 83.2812 67C83.0994 66.8561 82.8191 66.7462 82.4403 66.6705L80.929 66.3693C80.0767 66.1989 79.4422 65.9034 79.0256 65.483C78.6127 65.0625 78.4062 64.5265 78.4062 63.875C78.4062 63.3144 78.5578 62.8314 78.8608 62.4261C79.1676 62.0208 79.5975 61.7083 80.1506 61.4886C80.7074 61.2689 81.3589 61.1591 82.1051 61.1591C83.2074 61.1591 84.0748 61.392 84.7074 61.858C85.3438 62.3239 85.715 62.9583 85.821 63.7614Z" fill="black"/>
</svg>
