<svg width="67" height="50" viewBox="0 0 67 50" fill="none" xmlns="http://www.w3.org/2000/svg">
<mask id="mask0_150_102" style="mask-type:alpha" maskUnits="userSpaceOnUse" x="17" y="7" width="34" height="35">
<path d="M46.0707 36.203C52.612 29.5828 52.612 18.8493 46.0707 12.2291C39.5294 5.60896 28.9239 5.60896 22.3826 12.2291C15.8413 18.8493 15.8413 29.5828 22.3826 36.203C28.9239 42.8232 39.5294 42.8232 46.0707 36.203Z" fill="#C4C4C4"/>
</mask>
<g mask="url(#mask0_150_102)">
<path d="M57.4707 36.3586C67.1174 26.5955 67.1174 10.7663 57.4707 1.00324C47.824 -8.75987 32.1835 -8.75987 22.5368 1.00324C12.89 10.7663 12.89 26.5955 22.5368 36.3586C32.1835 46.1217 47.824 46.1217 57.4707 36.3586Z" fill="#FFEAD8"/>
<path d="M69.6734 23.5241C79.3201 13.761 79.3201 -2.06813 69.6734 -11.8312C60.0266 -21.5943 44.3862 -21.5943 34.7394 -11.8312C25.0927 -2.06813 25.0927 13.761 34.7394 23.5241C44.3862 33.2872 60.0266 33.2872 69.6734 23.5241Z" fill="white"/>
<path d="M46.6716 67.9672C46.5866 67.622 46.0469 67.1138 45.0521 66.4432C44.7827 66.2319 44.3986 65.9449 43.9019 65.5805C43.4045 65.2162 42.9534 64.8805 42.5487 64.5737C42.1433 64.2672 41.7633 63.9699 41.4083 63.6826C41.3515 63.6251 41.1742 63.4576 40.8757 63.1792C40.5769 62.9014 40.3252 62.6953 40.1188 62.5607C39.913 62.4271 39.7103 62.3596 39.5114 62.3596C39.2275 62.3596 38.8725 62.6329 38.4465 63.1792C38.0204 63.7257 37.6296 64.3196 37.2746 64.9624C36.9193 65.6049 36.5431 66.199 36.1455 66.7453C35.7475 67.2918 35.4206 67.5651 35.1652 67.5651C35.0369 67.5651 34.8769 67.5168 34.6853 67.4216C34.4938 67.3257 34.348 67.2436 34.2481 67.1775C34.149 67.11 33.9788 66.9761 33.7372 66.7744C33.495 66.573 33.3604 66.4627 33.332 66.4432C31.3857 64.986 29.7165 63.3179 28.3241 61.4398C26.9321 59.5603 25.6958 57.3083 24.6161 54.6816C24.6019 54.6432 24.5201 54.461 24.371 54.1353C24.2217 53.8093 24.1222 53.5795 24.0725 53.4449C24.0228 53.3107 23.9624 53.1141 23.8915 52.8555C23.8206 52.5966 23.785 52.3812 23.785 52.2083C23.785 51.8634 23.9875 51.4223 24.3924 50.8853C24.7973 50.349 25.2378 49.8408 25.7136 49.3617C26.1897 48.8829 26.6298 48.3555 27.0348 47.7805C27.4397 47.2052 27.6421 46.7261 27.6421 46.3429C27.6421 46.0747 27.5924 45.8011 27.4931 45.5233C27.3936 45.2449 27.2409 44.9049 27.0348 44.5021C26.8287 44.0994 26.7044 43.86 26.6617 43.7829C26.4488 43.3042 26.2289 42.7915 26.0013 42.2449C25.7737 41.6987 25.5253 41.0894 25.2552 40.4186C24.9854 39.748 24.7724 39.2302 24.616 38.8662C24.119 37.5244 23.7426 36.7956 23.4868 36.6809C23.3873 36.6233 23.238 36.5942 23.0393 36.5942C22.6555 36.5942 22.1548 36.6901 21.5368 36.8819C20.9186 37.0737 20.4322 37.2747 20.077 37.486C19.3666 37.8884 18.6137 39.0576 17.818 40.9936C17.0934 42.7956 15.3906 46.3877 15.3906 48.1514C15.3906 48.6686 15.4155 49.1716 15.4652 49.661C15.5149 50.1501 15.6037 50.7011 15.7317 51.3148C15.8596 51.9281 15.9626 52.384 16.0406 52.6805C16.1186 52.9775 16.2642 53.5093 16.4773 54.2764C16.6902 55.0436 16.8182 55.5131 16.8609 55.6853C17.3581 57.5644 17.9477 59.2418 18.6295 60.7179C19.7514 63.172 21.2824 65.7076 23.2216 68.3247C25.1608 70.9415 27.0398 73.0073 28.8583 74.522C29.9522 75.4418 31.1957 76.2374 32.5878 76.909C32.7158 76.9662 33.0637 77.1384 33.6318 77.4268C34.2001 77.7141 34.5943 77.9107 34.8146 78.0162C35.0346 78.1216 35.3723 78.2607 35.8267 78.4336C36.2818 78.6062 36.6899 78.7261 37.052 78.7939C37.4147 78.86 37.7876 78.8942 38.171 78.8942C39.4779 78.8942 42.1399 76.5959 43.4755 75.6182C44.9099 74.5449 45.7762 73.5288 46.0747 72.5696C46.2317 72.0908 46.3802 71.434 46.5223 70.6001C46.6648 69.7662 46.7355 69.0905 46.7355 68.5727C46.7359 68.3035 46.7145 68.1025 46.6716 67.9672Z" fill="#FF7800"/>
<path d="M21.0587 27.1298L13.043 18.0488L5.14697 23.1342C5.42611 28.3406 6.22371 39.2377 7.1808 41.1751C8.13788 43.1124 21.936 50.3771 28.7154 53.7675C34.8168 49.8525 47.1634 41.9744 47.7376 41.7805C48.3119 41.5867 45.265 39.6011 43.6699 38.6322L35.2956 40.5696L21.0587 27.1298Z" fill="#FF7800"/>
</g>
<mask id="mask1_150_102" style="mask-type:alpha" maskUnits="userSpaceOnUse" x="17" y="7" width="34" height="35">
<path d="M46.0707 36.203C52.612 29.5828 52.612 18.8493 46.0707 12.2291C39.5294 5.60896 28.9239 5.60896 22.3826 12.2291C15.8413 18.8493 15.8413 29.5828 22.3826 36.203C28.9239 42.8232 39.5294 42.8232 46.0707 36.203Z" fill="#C4C4C4"/>
</mask>
<g mask="url(#mask1_150_102)">
<path d="M38.0551 0.242143L8.86377 29.7856L9.34232 30.27L38.5337 0.726463L38.0551 0.242143Z" fill="white"/>
<path d="M40.2085 2.42159L11.0171 31.9651L11.4956 32.4494L40.687 2.90591L40.2085 2.42159Z" fill="white"/>
<path d="M42.123 4.35884L12.9316 33.9023L13.4102 34.3867L42.6016 4.84316L42.123 4.35884Z" fill="white"/>
<path d="M44.2763 6.53829L15.085 36.0818L15.5635 36.5661L44.7549 7.02261L44.2763 6.53829Z" fill="white"/>
<path d="M46.1904 8.47579L16.999 38.0193L17.4776 38.5036L46.6689 8.96011L46.1904 8.47579Z" fill="white"/>
<path d="M48.3437 10.6552L19.1523 40.1987L19.6309 40.6831L48.8223 11.1396L48.3437 10.6552Z" fill="white"/>
<path d="M50.2582 12.5925L21.0669 42.136L21.5454 42.6203L50.7368 13.0768L50.2582 12.5925Z" fill="white"/>
<path d="M52.4116 14.7719L23.2202 44.3154L23.6988 44.7997L52.8901 15.2563L52.4116 14.7719Z" fill="white"/>
<path d="M54.3256 16.7089L25.1343 46.2524L25.6128 46.7368L54.8042 17.1933L54.3256 16.7089Z" fill="white"/>
<path d="M56.4794 18.8884L27.2881 48.4319L27.7666 48.9162L56.958 19.3727L56.4794 18.8884Z" fill="white"/>
<path d="M58.3935 20.8256L29.2021 50.3691L29.6807 50.8535L58.8721 21.31L58.3935 20.8256Z" fill="white"/>
</g>
<mask id="mask2_150_102" style="mask-type:alpha" maskUnits="userSpaceOnUse" x="17" y="7" width="35" height="34">
<path d="M46.31 35.9608C52.8512 29.3406 52.8512 18.6072 46.31 11.987C39.7687 5.36678 29.1632 5.36677 22.6219 11.987C16.0806 18.6072 16.0806 29.3406 22.6219 35.9608C29.1632 42.581 39.7687 42.581 46.31 35.9608Z" fill="#C4C4C4"/>
</mask>
<g mask="url(#mask2_150_102)">
<path d="M36.8588 -1.45293L7.66748 28.0906L8.14603 28.5749L37.3374 -0.968611L36.8588 -1.45293Z" fill="#FF7800"/>
<path d="M38.7729 0.484331L9.58154 30.0278L10.0601 30.5122L39.2515 0.96865L38.7729 0.484331Z" fill="#FF7800"/>
<path d="M40.9267 2.66402L11.7354 32.2075L12.2139 32.6918L41.4053 3.14834L40.9267 2.66402Z" fill="#FF7800"/>
<path d="M42.8408 4.60103L13.6494 34.1445L14.128 34.6289L43.3193 5.08535L42.8408 4.60103Z" fill="#FF7800"/>
<path d="M44.9941 6.78047L15.8027 36.324L16.2813 36.8083L45.4727 7.26479L44.9941 6.78047Z" fill="#FF7800"/>
<path d="M46.9082 8.71797L17.7168 38.2615L18.1953 38.7458L47.3867 9.20229L46.9082 8.71797Z" fill="#FF7800"/>
<path d="M49.062 10.8974L19.8706 40.4409L20.3492 40.9252L49.5405 11.3817L49.062 10.8974Z" fill="#FF7800"/>
<path d="M50.976 12.8347L21.7847 42.3782L22.2632 42.8625L51.4546 13.319L50.976 12.8347Z" fill="#FF7800"/>
<path d="M53.1294 15.0141L23.938 44.5576L24.4165 45.0419L53.6079 15.4984L53.1294 15.0141Z" fill="#FF7800"/>
<path d="M55.0434 16.9514L25.8521 46.4949L26.3306 46.9792L55.522 17.4357L55.0434 16.9514Z" fill="#FF7800"/>
<path d="M57.1972 19.1308L28.0059 48.6743L28.4844 49.1586L57.6758 19.6151L57.1972 19.1308Z" fill="#FF7800"/>
<path d="M59.1113 21.0678L29.9199 50.6113L30.3985 51.0956L59.5898 21.5521L59.1113 21.0678Z" fill="#FF7800"/>
</g>
<path d="M34.3467 43.6154C44.9057 43.6154 53.4654 34.9524 53.4654 24.2661C53.4654 13.5797 44.9057 4.91675 34.3467 4.91675C23.7878 4.91675 15.228 13.5797 15.228 24.2661C15.228 34.9524 23.7878 43.6154 34.3467 43.6154Z" stroke="black" stroke-width="2"/>
<path d="M44.9559 8.56172C54.4093 4.92487 60.6038 4.48764 62.3177 7.49199C64.8874 11.9964 53.9156 23.2761 37.812 32.6857C21.7083 42.0955 6.57054 46.0719 4.00089 41.5674C2.26461 38.5236 7.14417 32.2481 15.1782 25.685" stroke="black" stroke-width="2"/>
<path d="M58.8296 19.9132C60.8854 19.9132 62.5519 18.2266 62.5519 16.146C62.5519 14.0655 60.8854 12.3789 58.8296 12.3789C56.7739 12.3789 55.1074 14.0655 55.1074 16.146C55.1074 18.2266 56.7739 19.9132 58.8296 19.9132Z" fill="#FF7800"/>
</svg>
